/* XPM */
static char * G:\new_crypto\alien\gobyte_master\gobyte_master\share\pixmaps\gobyte256_xpm[] = {
"128 128 68 1",
" 	c None",
".	c #00709C",
"+	c #00709B",
"@	c #00719B",
"#	c #00729A",
"$	c #007399",
"%	c #007498",
"&	c #007598",
"*	c #007597",
"=	c #006F9D",
"-	c #006F9C",
";	c #007697",
">	c #007696",
",	c #006E9E",
"'	c #006E9D",
")	c #007796",
"!	c #007795",
"~	c #006D9E",
"{	c #007895",
"]	c #006D9F",
"^	c #007894",
"/	c #006C9F",
"(	c #007994",
"_	c #006CA0",
":	c #007993",
"<	c #007A93",
"[	c #006BA0",
"}	c #006BA1",
"|	c #007A92",
"1	c #006AA1",
"2	c #007B92",
"3	c #006AA2",
"4	c #0067A5",
"5	c #0067A4",
"6	c #007B91",
"7	c #007E8F",
"8	c #007E8E",
"9	c #0066A5",
"0	c #0069A2",
"a	c #007C91",
"b	c #007F8E",
"c	c #0066A6",
"d	c #007F8D",
"e	c #0065A6",
"f	c #00808D",
"g	c #0064A7",
"h	c #0065A7",
"i	c #0069A3",
"j	c #00818C",
"k	c #007C90",
"l	c #0064A8",
"m	c #0063A8",
"n	c #00828B",
"o	c #0062A9",
"p	c #00838A",
"q	c #0063A9",
"r	c #0068A4",
"s	c #007D8F",
"t	c #007D90",
"u	c #0068A3",
"v	c #0061AA",
"w	c #00828C",
"x	c #00848A",
"y	c #008489",
"z	c #0062AA",
"A	c #008589",
"B	c #0060AB",
"C	c #008588",
"                                                                                                                                ",
"                                                       .+@@@@###$$$%%%%&*                                                       ",
"                                                   ==-...@@@####$$$%%%%&**;;>                                                   ",
"                                                ,'===....@@@####$$$%%%%&**;>>>)!                                                ",
"                                              ~,,,===....@@@####$$$%%%%&**;>>>)!!{                                              ",
"                                            ]]~,,,===....@@@####$$$%%%%&**;>>>)!!{^^                                            ",
"                                          //]]~,,,===....@@@####$$$%%%%&**;>>>)!!{^^((                                          ",
"                                         _//]]~,,,===....@@@####$$$%%%%&**;>>>)!!{^^^(:                                         ",
"                                        __//]]~,,,===....@@@####$$$%%%%&**;>>>)!!{^^^(::<                                       ",
"                                      [[__//]]~,,,===....@@@####$$$%%%%&**;>>>)!!{^^^(::<<                                      ",
"                                     }}[__//]]~,,,===....@@@####$$$%%%%&**;>>>)!!{^^^(::<<|                                     ",
"                                    }}[[__//]]~,,,===....@@@####$$$%%%%&**;>>>)!!{^^^(::<<||                                    ",
"                                   1}}[[__//]]~,,,===....@@@####$$$%%%%&**;>>>)!!{^^^(::<<||2                                   ",
"                                  311}[[__//]]~,,,===....@@@####$$$%%%%&**;>>>)!!{^^^(::<<||22                                  ",
"                       45         311}[[__//]]~,,,===....@@@####$$$%%%%&**;>>>)!!{^^^(::<<||26          7                       ",
"                      44         3311}[[__//]]~,,,===....@@@####$$$%%%%&**;>>>)!!{^^^(::<<||226         78                      ",
"                     944        03311}[[__//]]~,,,===....@@@####$$$$%%%&**;>>>)!!{^^^(::<<||226a        88b                     ",
"                    9944        03311}[[__//]]~,,,===-...@            %****>>>)!!{^^^(::<<||226a         8bb                    ",
"                   c994         03311}[[__//]]~,,,===-                    ;>>>)!!{^^^(::<<||226aa        8bbd                   ",
"                  ecc94        003311}[[__//]]~,,'=                          >)!!{^^^(::<<||226aa        8bbdf                  ",
"                 eecc94        003311}[[__//]]~,,                              !!{^^^(::<<||226aa        bbbdff                 ",
"                eeecc99        003311}[[__//]]~                                  {^^^(::<<||226aaa       bbbdfff                ",
"               gheecc99       i003311}[[__//]]                                    ^^^(::<<||226aaa       bbbdfffj               ",
"              ggeeecc99       i003311}[[__/]]               ####$$$$               ^^(::<<||226aaa       bbbdfffjj              ",
"              ggeeecc94       i003311}[[__//            +@@@####$$$$%%%&             (::<<||226aak       bbbdfffjj              ",
"             gggeeecc94       i003311}[[__/          ...+@@@####$$$%%%%&***          (::<<||226aak       8bbdfffjjj             ",
"            lgggeeecc94       i003311}[[__         ==....@@@####$$$%%%%&***>>         ::<<||226aak       8bbdfffjjjj            ",
"            mgggeeecc944      i003311}[[_         ===....@@@####$$$%%%%&**;>>>)        :<<||226aak       8bbdfffjjjn            ",
"            lgggeeecc994      i003311}[[_       ,,===....@@@####$$$%%%%&**;>>>)!        <<||226aaa      8bbbdfffjjjj            ",
"             gggeeecc994      i003311}[[       ,,,===....@@@####$$$%%%%&**;>>>)!!       <<||226aaa      78bbdfffjjj             ",
"             gggeeecc9945      003311}}[      ~,,,===....@@@####$$$%%%%&**;>>>)!!{      <<||226aaa      78bbdfffjjj             ",
"              ggeeecc9945      003311}[       ~,,,===....@@@####$$$%%%%&**;>>>)!!{       <||226aa      788bbdfffjj              ",
"               geeecc99455     003311}[      ]~,,,===....@@@####$$$%%%%&**;>>>)!!{^      <||226aa      788bbdfffj               ",
"        o      gheecc99455      03311}[     ]]~,,,===....@@@####$$$%%%%&**;>>>)!!{{^     <||226aa     7788bbdfffj      p        ",
"       ooq      eeecc99455r     03311}[     ]]~,,,===....@@@####$$$%%%%&**;>>>)!!{^^     <||226a     s7788bbdfff      npp       ",
"       ooqm      eecc99455rr     3311}[     ]]~,,,===....@@@####$$$%%%%&**;>>>)!!{^^     <||226     ts7788bbdff      nnpp       ",
"      ooommm      ecc99455ruu    3311}[    ]]]~,,,===....@@@####$$$%%%%&**;>>>)!!{^^^    <||226     ts7788bbdf      nnnppp      ",
"      ooommmm      cc99455rruu    311}[[   ]]]~,,,===....@@@@#     %%%%&**;>>>)!!{^^^   <<||26     tts7788bbd      nnnnppp      ",
"     oooommmmg      999455rruii    1}}[[   ]]]~,,,===...+@            %&**;>>>)!!{^^^   <<||2     ktts7788bb      jnnnnpppp     ",
"     vooommmlggg      4455rruui0    1}[[_  ]]]~,,,===...                **;>>>)!!{^^^  :<<|2    aaktts777b       jjwnnnpppx     ",
"     vooommmlgggh      455rruui00    }[[_   ]]~,,,===..                  **>>>)!!{^^^  :<<|    aakktts777      fjjjwnnnppppy    ",
"    voooommmlggghee      5rruui0033   [[__  ]]~,,,===-                     ;>>)!!{^^  ::<<    6aakktts7       ffjjjwnnnppppy    ",
"     oooommmlgggeeec      ruuui00331   [__/ ]]~,,,===                       >>)!!{{^ (::<   226aakktts      dfffjjjwnnnpppp     ",
"       oommmlgggeeec99      uii00331}}   _// ]~,,,==                        >>)!!{{ ((:   ||226aaktt      bbdfffjjjwnnnpp       ",
"         mmmlgggeeecc9445      003311}[[   ]] ~,,,=         ####$$$$         >)!!{ ^^   <<||226aaa      88bbdfffjjjwnnn         ",
"           mlgggeeecc99455r      331}}[[__   ]~,,,=       @@####$$$$%%%      >)!!{{   ::<<||226      s7788bbdfffjjjjn           ",
"              ggheecc99455ruuu      }}}[__//]   ,'      +@@@####$$$%%%%&      )!   ^((::<<||      ttts7788bbdfffjj              ",
"  vvv           eeecc99455rruii00       __//]]~,       .+@@@####$$$%%%%&*       !{{^((::<      aaaktts7788bbdfff           yyy  ",
"  vvvooo           c999455rruui003311       ]]~,,'=   ...@@@####$$$%%%%&**   >)!!{{^       2226aakktts777bbbd           pppyyy  ",
"  vvvzoooqm            455ruuui003311}[[__       '== ....@@@####$$$%%%%&*** >>)       ::<<|2226aakktts777            nnpppxyyy  ",
"  vvvzooommmmg             uuii003311}[[__/]]]~,     -...@@@####$$$%%%%&**;;     {^^^(::<<||226aakttt             jnnnnpppxyyyA ",
" Bvvvzooommmlggghe              03311}[[__//]]~,,'===-...@@@####$$$%%%%&**;;>>)!!{^^^(::<<|2226a              ffjjjwnnnpppxyyyA ",
" Bvvvzooommmlgggeeecc99               [[__//]]~,,,===-...@@@####$$$%%%%&**;>>>)!!{^^((::<<|              bbbdfffjjjwnnnpppxyyyC ",
" Bvvvzooommmlgggeeecc99455rr                 ]~,,'===-...@@@####$$$%%%%&**;>>>)!!{{                 ts7778bbdfffjjjwnnnpppxyyyC ",
" Bvvvzooommmlgggeeecc99455rruii00331                  ...@@@####$$$%%%%&**                  266aaaktts7788bbdfffjjjwnnnpppxyyyC ",
"  vvvoooommmlgggeeecc99455rruui00331}}[[__//]]         ..@@@####$$$%%%%&*         ^^((::<<||226aakktts7788bbdfffjjjwnnnpppxyyy  ",
"         mmmlgggheecc99455rruui003311}[[__//]]~,,'===-...@@@####$$$%%%%&**;>>>)!!{{^^(::<<||226aakktts7788bbdfffjjjjnnnp        ",
"                eeec999455rruui003311}[[__//]]~,,,===....@@@####$$$%%%%&**;>>>)!!{^^^(::<<||226aakktts778bbbdfff                ",
"                           uuii003311}}[__/]]]~,,,===....@@@####$$$%%%%&**;>>>)!!{^^^(::<<|2226aaaktt                           ",
"                                          /]]]~,,'===...+@@@####$$$$%%%&**;;>>)!!{{^^(                                          ",
"BBvvvooooqmmmg                                          .@@@         %%*                                          jnnnnppppyyyAC",
"BBvvvzooommmlgggeeec999455rruui003311}}                                                  <|2266aakttts778bbbdfffjjjwnnnpppxyyyCC",
"BBvvvzooommmlgggeeecc99455rruui003311}[[__/]]]~,,'===...                ***;>>)!!{{^^(::<<|2226aakktts7788bbdfffjjjwnnnpppxyyyCC",
"BBvvvzooommmlgggeeecc99455rruui003311}[[__//]]~,,,===...                **;>>>)!!{^^^(::<<||226aakktts7788bbdfffjjjwnnnpppxyyyCC",
"BBvvvzooommmlgggeeecc99455rruui003311}[[__//]]~,,,===...                **;>>>)!!{^^^(::<<||226aakktts7788bbdfffjjjwnnnpppxyyyCC",
"BBvvvzooommmlgggeeecc99455rruui00331}}[[__/]]]~,,,===...                ***>>>)!!{^^^(::<<||226aakktts7788bbdfffjjjwnnnpppxyyyCC",
"BBvvvzooommmlgggeeecc99455rruui0                                                                akttts778bbbdfffjjjjnnnpppxyyyCC",
"BBvvvvoooqm                                             .@@@@      %%%%**                                            nnpppxyyyAC",
"                                      [[__/]]]~,,'===-..+@@@####$$$$%%%&**;>>>)!!{{^^(::<<                                      ",
"                        55ruuii003311}}[__//]]~,,,===....@@@####$$$%%%%&**;>>>)!!{^^^(::<<|2266aaaktts77                        ",
"               geeecc99455rruui003311}[[__//]]~,,,===....@@@####$$$%%%%&**;>>>)!!{^^^(::<<||226aakktts778bbbdfffj               ",
"       oommmmgggeeecc99455rruui003311}[[__/]]]~,,,===-...@@@####$$$%%%%&**;>>>)!!{{^^(::<<||226aakktts7788bbdfffjjjnnnnpp       ",
" Bvvvvooommmlgggeeecc99455rruui00331}}}[__/            ..@@@####$$$%%%%&*            (::<<||226aakktts7788bbdfffjjjwnnnpppxyyyA ",
" Bvvvzooommmlgggeeecc99455ruuii003                   ....@@@####$$$%%%%&***                   6aakktts7788bbdfffjjjwnnnpppxyyyC ",
" Bvvvzooommmlgggeeecc94455rr                ]]~,,,===-...@@@####$$$%%%%&**;>>>)!!{{^                 s7778bbdfffjjjwnnnpppxyyyC ",
" Bvvvzooommmlgggheecc9              }}[[__//]]~,,,===....@@@####$$$%%%%&***;>>)!!{^^((::<<||              bbdfffjjjwnnnpppxyyyC ",
" Bvvvzooommmlgggh             i003311}[[__//]]~,,,===-...@@@####$$$%%%%&**;;>>)!!{^^^(::<<|2266aaa             fjjjnnnnpppxyyyA ",
"  vvvzoooqmmm             ruuui003311}[[__//]]       -...@@@####$$$%%%%&**;       ^^((::<<||226aakttts             nnnnpppxyyyA ",
"  vvvzoooq            4455rruui00331}}}[_       ,'== ....@@@####$$$%%%%&*** >>)!!      :<<||226aakktts7778            npppxyyy  ",
"  vvvvo            c994455rruui00331       ]]]~,,,=   ...@@@####$$$%%%%&**   >)!!{^^^       266aakktts7788bbd            pxyyy  ",
"  vv            eeecc99455rruii0       [__/]]]~,       ..@@@####$$$%%%%&*       !{{^^(::<       akktts7788bbdfff            yy  ",
"             gggeeecc99455rru       }}}[__//]   ,,      +@@@####$$$%%%%&      )!   ^((::<<||2      tts7788bbdfffjjj             ",
"           mmgggeeecc99455       3311}[[__   ]~,,,=       @@@###$$$%%%       >)!!{{   ::<<||266a      7788bbdfffjjjnn           ",
"         mmmlgggeeecc944      i003311}}[   ]] ~,,,=          ###$$$$         >)!!{ ^^    <||226aaa      88bbdfffjjjwnnn         ",
"       oommmlgggeeec99      uui003311}   _// ]~,,,==                        >>)!!{^ ((:    2226aaatt      bbdfffjjjwnnnppp      ",
"     oooommmlgggeeec      rruui00331   [__/ ]]~,,,===                      >>>)!!{{^ (::<   226aakktts      dfffjjjwnnnpppp     ",
"    voooommmlgggee      55rruui003    [[__  ]]~,,,===-                    ;;>>)!!{^^  ::<<    6aakktts77      ffjjjwnnnppppy    ",
"     vooommmlgggh      455rruui00    }[[_   ]]~,,,===-.                  **>>>)!!{^^^  :<<||   aakktts777      fjjjwnnnpppxy    ",
"     vooommmlgg      99455rruui0    1}[[_  ]]]~,,,===....               **;>>>)!!{^^^   <<|22    attts778bb      jjwnnnpppx     ",
"     oooommmmg      999455rrui     11}[[   ]]]~,,,===...+@@          %%&**;>>>)!!{^^^   <<||2     ttts7788bb      jjnnnpppp     ",
"      ooommmm      c999455rru     311}}[   ]]]~,,,===....@@@@###$$$%%%%&**;>>>)!!{^^^   <<||26     tts7788bbd      nnnnppp      ",
"      ooommm      ecc99455ru     3311}[     ]]~,,,===....@@@####$$$%%%%&**;>>>)!!{^^^    <||226     ts7788bbdf      nnnppp      ",
"       oomm      eecc99455rr     3311}[     ]]~,,,===....@@@####$$$%%%%&**;>>>)!!{^^     <||226a     s7788bbdff      nnpp       ",
"       ooq      eeecc99455r     03311}[     ]]~,,,===....@@@####$$$%%%%&**;>>>)!!{^^     <||226a     s7788bbdfff      npp       ",
"        o      geeecc99455      03311}[      ]~,,,===....@@@####$$$%%%%&**;>>>)!!{{^     <||226aa     7788bbdfffj      p        ",
"               geeecc9945      003311}[      ]~,,,===....@@@####$$$%%%%&**;>>>)!!{^      <||226aa      788bbdfffjj              ",
"              ggeeecc9945      003311}[       ~,,,===....@@@####$$$%%%%&**;>>>)!!{       <||226aa      788bbdfffjj              ",
"             gggeeecc994       003311}}[       ,,,===....@@@####$$$%%%%&**;>>>)!!{      <<||226aaa      78bbdfffjjj             ",
"             gggeeecc994      i003311}[[        ,,===....@@@####$$$%%%%&**;>>>)!!       <<||226aaa      78bbdfffjjjj            ",
"            lgggeeecc994      i003311}[[_        ,===....@@@####$$$%%%%&**;>>>)!       :<<||226aak      8bbbdfffjjjn            ",
"            mgggeeecc94       i003311}[[_         ===....@@@####$$$%%%%&**;>>>         :<<||226aak       8bbdfffjjjn            ",
"            lgggeeecc94       i003311}[[__          =-...@@@####$$$%%%%&**;;>         ::<<||226aak       8bbdfffjjjj            ",
"             gggeeecc94       i003311}[[__/           ...@@@####$$$%%%%&***          (::<<||226aak       bbbdfffjjj             ",
"              ggeeecc94       i003311}[[__//            +@@@@###$$$%%%%&            ((::<<||226aak       bbbdfffjj              ",
"               geeecc99       i003311}[[__//]                 ##$$                 ^^(::<<||226aaa       bbbdfffj               ",
"               gheecc99       i003311}[[__//]]                                    ^^^(::<<||226aaa       bbbdfffj               ",
"                eeecc99        003311}[[__//]]~,                                !{^^^(::<<||226aaa       bbbdfff                ",
"                 eecc94        003311}[[__//]]~,,,                             !!{^^^(::<<||226aa        bbbdff                 ",
"                  ecc94        003311}[[__//]]~,,'==                        >>)!!{^^^(::<<||226aa        8bbdf                  ",
"                   cc94         03311}[[__//]]~,,,===-                    ;;>>)!!{^^^(::<<||226aa        8bbd                   ",
"                    9994        03311}[[__//]]~,,,===....@@          %%***;>>>)!!{^^^(::<<||226a         8bb                    ",
"                     994         3311}[[__//]]~,,,===....@@@####$$$$%%%&**;>>>)!!{^^^(::<<||226a        8bb                     ",
"                      44         3311}[[__//]]~,,,===....@@@####$$$%%%%&**;>>>)!!{^^^(::<<||226         88                      ",
"                        5         311}[[__//]]~,,,===....@@@####$$$%%%%&**;>>>)!!{^^^(::<<||26          7                       ",
"                                   11}[[__//]]~,,,===....@@@####$$$%%%%&**;>>>)!!{^^^(::<<||22                                  ",
"                                   11}[[__//]]~,,,===....@@@####$$$%%%%&**;>>>)!!{^^^(::<<|22                                   ",
"                                    }}[[__//]]~,,,===....@@@####$$$%%%%&**;>>>)!!{^^^(::<<||                                    ",
"                                     }}[__//]]~,,,===....@@@####$$$%%%%&**;>>>)!!{^^^(::<<|                                     ",
"                                       [__//]]~,,,===....@@@####$$$%%%%&**;>>>)!!{^^^(::<<                                      ",
"                                        __//]]~,,,===....@@@####$$$%%%%&**;>>>)!!{^^^(::                                        ",
"                                         _/]]]~,,,===....@@@####$$$%%%%&**;>>>)!!{^^^(:                                         ",
"                                           ]]]~,,,===....@@@####$$$%%%%&**;>>>)!!{^^^                                           ",
"                                             ]~,,,===....@@@####$$$%%%%&**;>>>)!!{{^                                            ",
"                                               ,,'===....@@@####$$$%%%%&**;>>>)!!{                                              ",
"                                                 '===....@@@####$$$%%%%&**;;>>)                                                 ",
"                                                    =....@@@####$$$%%%%****;                                                    ",
"                                                        +@@@####$$$$%%%&                                                        ",
"                                                                                                                                "};
