/* XPM */
static char * G:\new_crypto\alien\gobyte_master\gobyte_master\share\pixmaps\gobyte64_xpm[] = {
"64 64 72 1",
" 	c None",
".	c #00719B",
"+	c #00729A",
"@	c #007399",
"#	c #007498",
"$	c #006F9D",
"%	c #006F9C",
"&	c #00709C",
"*	c #007598",
"=	c #007597",
"-	c #007697",
";	c #007696",
">	c #006E9E",
",	c #007795",
"'	c #007894",
")	c #006C9F",
"!	c #006D9F",
"~	c #007796",
"{	c #007895",
"]	c #007994",
"^	c #006BA0",
"/	c #006CA0",
"(	c #007993",
"_	c #007A93",
":	c #006BA1",
"<	c #007A92",
"[	c #006AA1",
"}	c #007B92",
"|	c #0067A5",
"1	c #006AA2",
"2	c #007E8F",
"3	c #0066A5",
"4	c #007B91",
"5	c #007E8E",
"6	c #007F8E",
"7	c #0066A6",
"8	c #0069A2",
"9	c #006D9E",
"0	c #007C91",
"a	c #007F8D",
"b	c #0065A6",
"c	c #00808D",
"d	c #0064A7",
"e	c #00818C",
"f	c #0069A3",
"g	c #007C90",
"h	c #0064A8",
"i	c #0067A4",
"j	c #0062A9",
"k	c #0063A9",
"l	c #0068A4",
"m	c #007D8F",
"n	c #00828B",
"o	c #00838A",
"p	c #0062A8",
"q	c #0063A8",
"r	c #0068A3",
"s	c #00719C",
"t	c #007D90",
"u	c #00709B",
"v	c #00828A",
"w	c #00848A",
"x	c #0061AA",
"y	c #0065A7",
"z	c #00828C",
"A	c #008389",
"B	c #006E9D",
"C	c #008489",
"D	c #0062AA",
"E	c #008588",
"F	c #0060AB",
"G	c #00709D",
"                             .++@@#                             ",
"                         $%&&.++@##*=-;                         ",
"                       >>$&&&.++@###=;;,,'                      ",
"                     )!>>$&&&.++@###=;;~{']                     ",
"                   ^/)!>>$&&&.++@###=;;~{''(_                   ",
"                  :^/)!>>$&&&.++@###=;;~{''(_<                  ",
"                 [:^/)!>>$&&&.++@###=;;~{''(_<}                 ",
"           |     1[^/)!>>$&&&.++@###=;;~{''(_<}     2           ",
"          3|    1[[^/)!>>$%&&.+  @#*=-;~{''(_<}4    56          ",
"         73|    81[^/)!9>$            ;~{''(_<}0    56a         ",
"        bb3    811[^/)!9                {''(_<}00    6ac        ",
"       db73    811[^/)!                  ''(_<}00    6cce       ",
"       db77|   f11[^/)     &..++@@##=      (_<}0g    6cce       ",
"      hdb77|   f11[^/    $$&&.++@###=;;    (_<}0g   56ccee      ",
"      ddb773   811[^    >$&&&.++@###=;;~    _<}00   56ccee      ",
"       db77|   811[^   >>$&&&.++@###=;;~{   _<}40   56cce       ",
"        b773i   81[^  !>>$&&&.++@###=;;~,'  _<}0   256ace       ",
"   jk   bb33il  1[[^  !>>$&&&.++@###=;;~{'  _<}4  m256cc   no   ",
"   jpq   773ilr  1[^  !>>$&&s.++@###=;;~{'  _<}   t256a   noo   ",
"   jpqd    |ilrf  :^  !>>$$&u       =;;~{'  _<  0gt256   envow  ",
"  xjpqhdy   ilr88  ^/ !>>$$          -;~,' (_  0ggm2   ceznvoA  ",
"   jjqhdb73   rf8[: /)!9>$            ;~{{](  }0gt   6aceznoo   ",
"     qhdb77|i   11:^/  >>    .++@@#    ~,   _<}4   256cceen     ",
" x      bb73ilrf   ^/)! B   ..++@##*   ~ '](_   0tt256cce     C ",
" xDjj      |ilrf11[^   >B$ &&.++@###= ;~,   _}}4ggm226     oowC ",
" xDjqqhd       811[^/)!9> %&&.++@###=- ,{''(_<}40t      eznnowC ",
" xDjpqhdb773i        )!>>$$&&.++@###=;;~,'](       256aceznvowCE",
" xDjjqddb773ilr881:^       &&.++@###=       _<}00gt256cceznoowC ",
"      ddb733ilrf81[^/)!>>$$&&.++@###=;;~,''(_<}0gtm256acee      ",
"                 [:^/!!>>$$&..++@@##=-;~,''(_<}                 ",
"FxDjjqhdbb33                &      =                66cceznoowCE",
"FxDjpqhdb773ilr81[:^/)!>>$&&        =-;~,''(_<}40gt256cceznvowCE",
"FxDjpqhdb73|ilr81[:^/)!>>$$&        =;;~,''(_<}40gt256cceznvowCE",
"Fxxjjqhdbb                  &      =                  cceenooCCE",
"               81[:^/)!>>$$&..++@@##=;;,,''(_<}40               ",
"      ddb773ilr811[^/)!>>$$&&.++@###=;;~,''(_<}0gtm256aceen     ",
"Fxxjjqhdb773ilrf81:        &&.++@###=        <}0ggt256cceznooCCE",
" xDjpqhdb77|        /)!>>$$&&.++@###=-;,,'](        56aceznvowCE",
" xDjkqhd      r811[^/)!9  %&&.++@###=-  {'](_<}40t      ennnowC ",
" xxj      3|ilr811:    >>$ &..++@###= ;~,    <}40gm256      owC ",
"       dbb73ilr    ^/)! >   ..++@###   ~ '](_<   tt256cce     C ",
"     qhdb77|i   11[^  !>>$    ++@@#    ~,'  _<}4   256ccezn     ",
"   jjqhdbb   lrf81  /)!>>$            ;~,'](  }00tt   cceznoo   ",
"  xjpqhdb   ilr88  ^/ !>>$$          -;~{' (_  0ggm2   ceznvow  ",
"   jpqd   33ilr   [^  !>>$G&u      *=;;~{'  _<}  tt256   envo   ",
"   jjq   733il   1[^  !>>$&&&.++@##*=;;~{'  _<}   t256a   noo   ",
"    j   b773il  1[[^  !>>$&&&.++@###=;;~{'  _<}4  m256ac   oo   ",
"       db773i   81[^  !>>$&&&.++@###=;;~,'  _<}0   256cce       ",
"       db77|   811[^   >>$&&&.++@###=;;~,   _<}00   56cce       ",
"      ddb773   811[^    >$&&&.++@###=;;~    _<}00   56ccee      ",
"      ddb77|   f11[^/    $$&&.++@###=-;    (_<}0g   56ccee      ",
"       db77|   f11[^/)     &..++@###=     ](_<}0g    6cce       ",
"        b73    811[^/)!                  ''(_<}00    6ace       ",
"        bb3    811[^/)!9                {''(_<}40    6cc        ",
"         77|    81[^/)!>>$            ;~{''(_<}0    56a         ",
"          33    1[[^/)!>>$&&&.++@@#*=;;~{''(_<}4    56          ",
"                 1[^/)!>>$&&&.++@###=;;~{''(_<}     5           ",
"                  [^/)!>>$&&&.++@###=;;~{''(_<}                 ",
"                  :^/)!>>$&&&.++@###=;;~{''(_<                  ",
"                    /)!>>$&&&.++@###=;;~{''(                    ",
"                     !!>>$&&&.++@###=;;~{''                     ",
"                       >>$&&&.++@###=;;,,                       ",
"                         $&&&.++@##*=-;                         ",
"                              ++@@                              "};
