/* XPM */
static char * G:\new_crypto\alien\gobyte_master\gobyte_master\share\pixmaps\gobyte32_xpm[] = {
"32 32 73 1",
" 	c None",
".	c #006F9C",
"+	c #00719B",
"@	c #00729A",
"#	c #007399",
"$	c #007498",
"%	c #007597",
"&	c #006E9E",
"*	c #00709C",
"=	c #007696",
"-	c #007895",
";	c #006BA0",
">	c #006CA0",
",	c #007894",
"'	c #007893",
")	c #007A93",
"!	c #007A92",
"~	c #007B92",
"{	c #0066A5",
"]	c #006AA2",
"^	c #006AA0",
"/	c #006D9F",
"(	c #006F9E",
"_	c #007697",
":	c #007B91",
"<	c #007F8E",
"[	c #0065A6",
"}	c #006C9F",
"|	c #007C91",
"1	c #00808D",
"2	c #0064A7",
"3	c #0066A6",
"4	c #0069A3",
"5	c #007993",
"6	c #007C92",
"7	c #007C90",
"8	c #00818C",
"9	c #007E8E",
"0	c #0067A4",
"a	c #006AA1",
"b	c #007E8F",
"c	c #0062A9",
"d	c #0062A8",
"e	c #0068A4",
"f	c #0068A3",
"g	c #007E90",
"h	c #00828A",
"i	c #00838A",
"j	c #0064A8",
"k	c #0069A2",
"l	c #006D9E",
"m	c #006F9D",
"n	c #007D8F",
"o	c #00828C",
"p	c #0061AA",
"q	c #0062AA",
"r	c #0063A8",
"s	c #00828B",
"t	c #00848A",
"u	c #008489",
"v	c #0068A2",
"w	c #007794",
"x	c #0060AA",
"y	c #006BA1",
"z	c #008488",
"A	c #006E9F",
"B	c #0063A9",
"C	c #007796",
"D	c #007994",
"E	c #00709B",
"F	c #007598",
"G	c #007596",
"H	c #007D90",
"             .+@#$%             ",
"           &&**@$$==-           ",
"         ;>&&**@$$==,')         ",
"         ;>&&**@$$==,,!~        ",
"     {  ]^>/(.    _=,,!:  <     ",
"    [{  ]^}/        ,,!|  <1    ",
"   233 4]^>  *+@#$%  5)67 <18   ",
"   23{  ];  &**@$$==  !:  918   ",
"    [{0 ]a &&**@$$==, !: b91    ",
" cd  {ef ; /&*+  $==, !  g9  hi ",
" cdj[ e4k >lm      =-5 |7n 1ohi ",
"   2[30  ;>/  +@#$  ,5)  b918   ",
"pqr   e4]^>/m**@$$%=-'!~7b   stu",
"pqd233ev     **@$$%     |b91ohtu",
"      e4];}&mm+@#$_=w,)~7b      ",
"xqdj[{ef]y}          5):7b<1ohtz",
"xqdj[{ef]              :7b<18htz",
"     3ek];}Amm+@#$==,,)~7b9     ",
"pqdj33e      **@$$%      b91ohtu",
"pqB   ev]y}l&*+@$$%C,D!:|n   stu",
"   2[30  ;}l  +@#$  ,D)  g918   ",
" cdj[ e4k >&m      =,5 |7n 1ohi ",
" cd  {e  ^ /&*E  FG=, !  H9  hi ",
"    330 ]a &&**@$$==, !: b91    ",
"   23{  ];  &**@$$=C  )|  918   ",
"   233 4]^>  *+@$$%  5)67 <18   ",
"    [{  ]^}/        ,,!:  <1    ",
"     {  ]^>A&*    _=,,!:  <     ",
"         ^>&&**@$$==,,!         ",
"          >&&**@$$==,')         ",
"           &&**@$$==-           ",
"             *+@#$_             "};
