/* XPM */
static char * G:\new_crypto\alien\gobyte_master\gobyte_master\share\pixmaps\gobyte16_xpm[] = {
"16 16 36 1",
" 	c None",
".	c #006F9D",
"+	c #00719B",
"@	c #007498",
"#	c #007696",
"$	c #006BA0",
"%	c #006D9F",
"&	c #007894",
"*	c #007A92",
"=	c #0066A5",
"-	c #006AA1",
";	c #007B91",
">	c #007F8E",
",	c #0066A6",
"'	c #007B92",
")	c #0068A4",
"!	c #007E90",
"~	c #0063A8",
"{	c #0065A6",
"]	c #0068A3",
"^	c #006C9F",
"/	c #007994",
"(	c #007D90",
"_	c #007F8D",
":	c #00828B",
"<	c #0062AA",
"[	c #00709D",
"}	c #007597",
"|	c #00848A",
"1	c #006BA1",
"2	c #00729A",
"3	c #007399",
"4	c #007697",
"5	c #007D8F",
"6	c #00818B",
"7	c #006AA2",
"      .+@#      ",
"    $%.+@#&*    ",
"  = -%    &; >  ",
"  , - .+@# ' >  ",
"  =)- .+@# *!>  ",
" ~{]-^    /'(_: ",
"<~,]- [+@} '(>:|",
" ~=)1%.234&'5_: ",
" ~,]1%.+@#&'5_6 ",
"<~,]7 .+@# '(>:|",
" ~{]-%    /'(_: ",
"  , - .+@# * >  ",
"  , - .+@# ' >  ",
"  = -%    &; >  ",
"     %.+@#&*    ",
"      .+@#      "};
